<mxfile host="Electron" agent="Mozilla/5.0 (Windows NT 10.0; Win64; x64) AppleWebKit/537.36 (KHTML, like Gecko) draw.io/24.7.17 Chrome/128.0.6613.36 Electron/32.0.1 Safari/537.36" version="24.7.17">
  <diagram name="Pagina-1" id="Mv0-S8nng72Dz9aDBhA3">
    <mxGraphModel dx="947" dy="548" grid="1" gridSize="10" guides="1" tooltips="1" connect="1" arrows="1" fold="1" page="1" pageScale="1" pageWidth="827" pageHeight="1169" math="1" shadow="0">
      <root>
        <mxCell id="0" />
        <mxCell id="1" parent="0" />
        <mxCell id="0nTfzMhvYN1w0-x9blEm-1" value="" style="ellipse;whiteSpace=wrap;html=1;aspect=fixed;fillColor=none;" parent="1" vertex="1">
          <mxGeometry x="90" y="281.24" width="40" height="40" as="geometry" />
        </mxCell>
        <mxCell id="0nTfzMhvYN1w0-x9blEm-2" style="edgeStyle=orthogonalEdgeStyle;rounded=0;orthogonalLoop=1;jettySize=auto;html=1;entryX=0.5;entryY=0;entryDx=0;entryDy=0;" parent="1" source="0nTfzMhvYN1w0-x9blEm-3" target="0nTfzMhvYN1w0-x9blEm-1" edge="1">
          <mxGeometry relative="1" as="geometry" />
        </mxCell>
        <mxCell id="0nTfzMhvYN1w0-x9blEm-3" value="" style="rounded=0;whiteSpace=wrap;html=1;fillColor=#000000;rotation=-180;" parent="1" vertex="1">
          <mxGeometry x="95" y="241.24" width="30" height="10" as="geometry" />
        </mxCell>
        <mxCell id="0nTfzMhvYN1w0-x9blEm-6" style="edgeStyle=orthogonalEdgeStyle;rounded=0;orthogonalLoop=1;jettySize=auto;html=1;entryX=0.5;entryY=0;entryDx=0;entryDy=0;" parent="1" source="0nTfzMhvYN1w0-x9blEm-8" target="0nTfzMhvYN1w0-x9blEm-13" edge="1">
          <mxGeometry relative="1" as="geometry" />
        </mxCell>
        <mxCell id="0nTfzMhvYN1w0-x9blEm-8" value="" style="rounded=0;whiteSpace=wrap;html=1;fillColor=#000000;rotation=-180;" parent="1" vertex="1">
          <mxGeometry x="130" y="351.24" width="30" height="10" as="geometry" />
        </mxCell>
        <mxCell id="0nTfzMhvYN1w0-x9blEm-9" value="" style="ellipse;whiteSpace=wrap;html=1;aspect=fixed;fillColor=none;" parent="1" vertex="1">
          <mxGeometry x="160" y="281.24" width="40" height="40" as="geometry" />
        </mxCell>
        <mxCell id="0nTfzMhvYN1w0-x9blEm-10" value="" style="endArrow=classic;html=1;rounded=0;exitX=1;exitY=1;exitDx=0;exitDy=0;entryX=0.75;entryY=1;entryDx=0;entryDy=0;" parent="1" source="0nTfzMhvYN1w0-x9blEm-1" target="0nTfzMhvYN1w0-x9blEm-8" edge="1">
          <mxGeometry width="50" height="50" relative="1" as="geometry">
            <mxPoint x="120" y="371.24" as="sourcePoint" />
            <mxPoint x="170" y="321.24" as="targetPoint" />
          </mxGeometry>
        </mxCell>
        <mxCell id="0nTfzMhvYN1w0-x9blEm-11" value="" style="endArrow=classic;html=1;rounded=0;exitX=0;exitY=1;exitDx=0;exitDy=0;entryX=0.25;entryY=1;entryDx=0;entryDy=0;" parent="1" source="0nTfzMhvYN1w0-x9blEm-9" target="0nTfzMhvYN1w0-x9blEm-8" edge="1">
          <mxGeometry width="50" height="50" relative="1" as="geometry">
            <mxPoint x="134" y="325.24" as="sourcePoint" />
            <mxPoint x="148" y="361.24" as="targetPoint" />
          </mxGeometry>
        </mxCell>
        <mxCell id="0nTfzMhvYN1w0-x9blEm-12" style="edgeStyle=orthogonalEdgeStyle;rounded=0;orthogonalLoop=1;jettySize=auto;html=1;entryX=0.5;entryY=1;entryDx=0;entryDy=0;" parent="1" source="0nTfzMhvYN1w0-x9blEm-13" target="0nTfzMhvYN1w0-x9blEm-15" edge="1">
          <mxGeometry relative="1" as="geometry" />
        </mxCell>
        <mxCell id="0nTfzMhvYN1w0-x9blEm-13" value="" style="ellipse;whiteSpace=wrap;html=1;aspect=fixed;fillColor=none;" parent="1" vertex="1">
          <mxGeometry x="125" y="391.24" width="40" height="40" as="geometry" />
        </mxCell>
        <mxCell id="0nTfzMhvYN1w0-x9blEm-14" style="edgeStyle=orthogonalEdgeStyle;rounded=1;orthogonalLoop=1;jettySize=auto;html=1;entryX=1;entryY=0.5;entryDx=0;entryDy=0;curved=0;" parent="1" source="0nTfzMhvYN1w0-x9blEm-15" target="0nTfzMhvYN1w0-x9blEm-9" edge="1">
          <mxGeometry relative="1" as="geometry">
            <Array as="points">
              <mxPoint x="145" y="481.24" />
              <mxPoint x="220" y="481.24" />
              <mxPoint x="220" y="301.24" />
            </Array>
          </mxGeometry>
        </mxCell>
        <mxCell id="0nTfzMhvYN1w0-x9blEm-15" value="" style="rounded=0;whiteSpace=wrap;html=1;fillColor=#000000;rotation=-180;" parent="1" vertex="1">
          <mxGeometry x="130" y="461.24" width="30" height="10" as="geometry" />
        </mxCell>
        <mxCell id="0nTfzMhvYN1w0-x9blEm-17" value="" style="ellipse;whiteSpace=wrap;html=1;aspect=fixed;fillColor=#000000;" parent="1" vertex="1">
          <mxGeometry x="175" y="296.24" width="10" height="10" as="geometry" />
        </mxCell>
        <mxCell id="0nTfzMhvYN1w0-x9blEm-19" value="\(t_1\)" style="text;html=1;align=center;verticalAlign=middle;whiteSpace=wrap;rounded=0;" parent="1" vertex="1">
          <mxGeometry x="125" y="233.74" width="30" height="25" as="geometry" />
        </mxCell>
        <mxCell id="0nTfzMhvYN1w0-x9blEm-20" value="\(t_2\)" style="text;html=1;align=center;verticalAlign=middle;whiteSpace=wrap;rounded=0;" parent="1" vertex="1">
          <mxGeometry x="160" y="343.74" width="30" height="25" as="geometry" />
        </mxCell>
        <mxCell id="0nTfzMhvYN1w0-x9blEm-21" value="\(t_3\)" style="text;html=1;align=center;verticalAlign=middle;whiteSpace=wrap;rounded=0;" parent="1" vertex="1">
          <mxGeometry x="160" y="453.74" width="30" height="25" as="geometry" />
        </mxCell>
        <mxCell id="0nTfzMhvYN1w0-x9blEm-22" value="\(p_3\)" style="text;html=1;align=center;verticalAlign=middle;whiteSpace=wrap;rounded=0;" parent="1" vertex="1">
          <mxGeometry x="170" y="398.74" width="30" height="25" as="geometry" />
        </mxCell>
        <mxCell id="0nTfzMhvYN1w0-x9blEm-23" value="\(p_2\)" style="text;html=1;align=center;verticalAlign=middle;whiteSpace=wrap;rounded=0;" parent="1" vertex="1">
          <mxGeometry x="185" y="258.74" width="30" height="25" as="geometry" />
        </mxCell>
        <mxCell id="0nTfzMhvYN1w0-x9blEm-24" value="\(p_1\)" style="text;html=1;align=center;verticalAlign=middle;whiteSpace=wrap;rounded=0;" parent="1" vertex="1">
          <mxGeometry x="70" y="288.74" width="20" height="25" as="geometry" />
        </mxCell>
        <mxCell id="K6GkEd_IJH7caCy-Qa0n-1" style="edgeStyle=orthogonalEdgeStyle;rounded=0;orthogonalLoop=1;jettySize=auto;html=1;entryX=0.5;entryY=0;entryDx=0;entryDy=0;" edge="1" parent="1" source="K6GkEd_IJH7caCy-Qa0n-2" target="K6GkEd_IJH7caCy-Qa0n-4">
          <mxGeometry relative="1" as="geometry" />
        </mxCell>
        <mxCell id="K6GkEd_IJH7caCy-Qa0n-2" value="\(\begin{bmatrix} 0&amp;amp; 1 &amp;amp; 0&amp;nbsp; \end{bmatrix}\)" style="text;html=1;align=center;verticalAlign=middle;whiteSpace=wrap;rounded=0;" vertex="1" parent="1">
          <mxGeometry x="515" y="283.74" width="70" height="20" as="geometry" />
        </mxCell>
        <mxCell id="K6GkEd_IJH7caCy-Qa0n-3" value="\(t_1\)" style="text;html=1;align=center;verticalAlign=middle;whiteSpace=wrap;rounded=0;" vertex="1" parent="1">
          <mxGeometry x="525" y="313.74" width="20" height="20" as="geometry" />
        </mxCell>
        <mxCell id="K6GkEd_IJH7caCy-Qa0n-4" value="\(\begin{bmatrix} 1&amp;amp; 1 &amp;amp; 0&amp;nbsp; \end{bmatrix}\)" style="text;html=1;align=center;verticalAlign=middle;whiteSpace=wrap;rounded=0;" vertex="1" parent="1">
          <mxGeometry x="515" y="343.74" width="70" height="20" as="geometry" />
        </mxCell>
        <mxCell id="K6GkEd_IJH7caCy-Qa0n-5" value="Attenzione : la marcatura che segue ricopre quella iniziale" style="text;html=1;align=center;verticalAlign=middle;whiteSpace=wrap;rounded=0;fontColor=#CC0000;" vertex="1" parent="1">
          <mxGeometry x="490" y="363.74" width="120" height="70" as="geometry" />
        </mxCell>
        <mxCell id="K6GkEd_IJH7caCy-Qa0n-6" value="\(\implies\)" style="text;html=1;align=center;verticalAlign=middle;whiteSpace=wrap;rounded=0;fontSize=23;" vertex="1" parent="1">
          <mxGeometry x="595" y="308.74" width="90" height="30" as="geometry" />
        </mxCell>
        <mxCell id="K6GkEd_IJH7caCy-Qa0n-7" style="edgeStyle=orthogonalEdgeStyle;rounded=0;orthogonalLoop=1;jettySize=auto;html=1;entryX=0.5;entryY=0;entryDx=0;entryDy=0;" edge="1" parent="1" source="K6GkEd_IJH7caCy-Qa0n-8" target="K6GkEd_IJH7caCy-Qa0n-10">
          <mxGeometry relative="1" as="geometry" />
        </mxCell>
        <mxCell id="K6GkEd_IJH7caCy-Qa0n-8" value="\(\begin{bmatrix} 0&amp;amp; 1 &amp;amp; 0&amp;nbsp; \end{bmatrix}\)" style="text;html=1;align=center;verticalAlign=middle;whiteSpace=wrap;rounded=0;" vertex="1" parent="1">
          <mxGeometry x="695" y="283.74" width="70" height="20" as="geometry" />
        </mxCell>
        <mxCell id="K6GkEd_IJH7caCy-Qa0n-9" value="\(t_1\)" style="text;html=1;align=center;verticalAlign=middle;whiteSpace=wrap;rounded=0;" vertex="1" parent="1">
          <mxGeometry x="705" y="313.74" width="20" height="20" as="geometry" />
        </mxCell>
        <mxCell id="K6GkEd_IJH7caCy-Qa0n-10" value="\(\begin{bmatrix} \omega&amp;amp; 1 &amp;amp; 0&amp;nbsp; \end{bmatrix}\)" style="text;html=1;align=center;verticalAlign=middle;whiteSpace=wrap;rounded=0;" vertex="1" parent="1">
          <mxGeometry x="695" y="343.74" width="70" height="20" as="geometry" />
        </mxCell>
        <mxCell id="K6GkEd_IJH7caCy-Qa0n-11" value="Facendo utilizzo del termine \(\omega\)" style="text;html=1;align=center;verticalAlign=middle;whiteSpace=wrap;rounded=0;fontColor=#000000;" vertex="1" parent="1">
          <mxGeometry x="670" y="363.74" width="120" height="70" as="geometry" />
        </mxCell>
        <mxCell id="K6GkEd_IJH7caCy-Qa0n-12" value="" style="ellipse;whiteSpace=wrap;html=1;aspect=fixed;fillColor=none;" vertex="1" parent="1">
          <mxGeometry x="310" y="281.24" width="40" height="40" as="geometry" />
        </mxCell>
        <mxCell id="K6GkEd_IJH7caCy-Qa0n-13" style="edgeStyle=orthogonalEdgeStyle;rounded=0;orthogonalLoop=1;jettySize=auto;html=1;entryX=0.5;entryY=0;entryDx=0;entryDy=0;" edge="1" parent="1" source="K6GkEd_IJH7caCy-Qa0n-14" target="K6GkEd_IJH7caCy-Qa0n-12">
          <mxGeometry relative="1" as="geometry" />
        </mxCell>
        <mxCell id="K6GkEd_IJH7caCy-Qa0n-14" value="" style="rounded=0;whiteSpace=wrap;html=1;fillColor=#000000;rotation=-180;" vertex="1" parent="1">
          <mxGeometry x="315" y="241.24" width="30" height="10" as="geometry" />
        </mxCell>
        <mxCell id="K6GkEd_IJH7caCy-Qa0n-15" style="edgeStyle=orthogonalEdgeStyle;rounded=0;orthogonalLoop=1;jettySize=auto;html=1;entryX=0.5;entryY=0;entryDx=0;entryDy=0;" edge="1" parent="1" source="K6GkEd_IJH7caCy-Qa0n-16" target="K6GkEd_IJH7caCy-Qa0n-21">
          <mxGeometry relative="1" as="geometry" />
        </mxCell>
        <mxCell id="K6GkEd_IJH7caCy-Qa0n-16" value="" style="rounded=0;whiteSpace=wrap;html=1;fillColor=#000000;rotation=-180;" vertex="1" parent="1">
          <mxGeometry x="350" y="351.24" width="30" height="10" as="geometry" />
        </mxCell>
        <mxCell id="K6GkEd_IJH7caCy-Qa0n-17" value="" style="ellipse;whiteSpace=wrap;html=1;aspect=fixed;fillColor=none;" vertex="1" parent="1">
          <mxGeometry x="380" y="281.24" width="40" height="40" as="geometry" />
        </mxCell>
        <mxCell id="K6GkEd_IJH7caCy-Qa0n-18" value="" style="endArrow=classic;html=1;rounded=0;exitX=1;exitY=1;exitDx=0;exitDy=0;entryX=0.75;entryY=1;entryDx=0;entryDy=0;" edge="1" parent="1" source="K6GkEd_IJH7caCy-Qa0n-12" target="K6GkEd_IJH7caCy-Qa0n-16">
          <mxGeometry width="50" height="50" relative="1" as="geometry">
            <mxPoint x="340" y="371.24" as="sourcePoint" />
            <mxPoint x="390" y="321.24" as="targetPoint" />
          </mxGeometry>
        </mxCell>
        <mxCell id="K6GkEd_IJH7caCy-Qa0n-19" value="" style="endArrow=classic;html=1;rounded=0;exitX=0;exitY=1;exitDx=0;exitDy=0;entryX=0.25;entryY=1;entryDx=0;entryDy=0;" edge="1" parent="1" source="K6GkEd_IJH7caCy-Qa0n-17" target="K6GkEd_IJH7caCy-Qa0n-16">
          <mxGeometry width="50" height="50" relative="1" as="geometry">
            <mxPoint x="354" y="325.24" as="sourcePoint" />
            <mxPoint x="368" y="361.24" as="targetPoint" />
          </mxGeometry>
        </mxCell>
        <mxCell id="K6GkEd_IJH7caCy-Qa0n-20" style="edgeStyle=orthogonalEdgeStyle;rounded=0;orthogonalLoop=1;jettySize=auto;html=1;entryX=0.5;entryY=1;entryDx=0;entryDy=0;" edge="1" parent="1" source="K6GkEd_IJH7caCy-Qa0n-21" target="K6GkEd_IJH7caCy-Qa0n-23">
          <mxGeometry relative="1" as="geometry" />
        </mxCell>
        <mxCell id="K6GkEd_IJH7caCy-Qa0n-21" value="" style="ellipse;whiteSpace=wrap;html=1;aspect=fixed;fillColor=none;" vertex="1" parent="1">
          <mxGeometry x="345" y="391.24" width="40" height="40" as="geometry" />
        </mxCell>
        <mxCell id="K6GkEd_IJH7caCy-Qa0n-22" style="edgeStyle=orthogonalEdgeStyle;rounded=1;orthogonalLoop=1;jettySize=auto;html=1;entryX=1;entryY=0.5;entryDx=0;entryDy=0;curved=0;" edge="1" parent="1" source="K6GkEd_IJH7caCy-Qa0n-23" target="K6GkEd_IJH7caCy-Qa0n-17">
          <mxGeometry relative="1" as="geometry">
            <Array as="points">
              <mxPoint x="365" y="481.24" />
              <mxPoint x="440" y="481.24" />
              <mxPoint x="440" y="301.24" />
            </Array>
          </mxGeometry>
        </mxCell>
        <mxCell id="K6GkEd_IJH7caCy-Qa0n-23" value="" style="rounded=0;whiteSpace=wrap;html=1;fillColor=#000000;rotation=-180;" vertex="1" parent="1">
          <mxGeometry x="350" y="461.24" width="30" height="10" as="geometry" />
        </mxCell>
        <mxCell id="K6GkEd_IJH7caCy-Qa0n-24" value="" style="ellipse;whiteSpace=wrap;html=1;aspect=fixed;fillColor=#000000;" vertex="1" parent="1">
          <mxGeometry x="395" y="296.24" width="10" height="10" as="geometry" />
        </mxCell>
        <mxCell id="K6GkEd_IJH7caCy-Qa0n-25" value="\(t_1\)" style="text;html=1;align=center;verticalAlign=middle;whiteSpace=wrap;rounded=0;" vertex="1" parent="1">
          <mxGeometry x="345" y="233.74" width="30" height="25" as="geometry" />
        </mxCell>
        <mxCell id="K6GkEd_IJH7caCy-Qa0n-26" value="\(t_2\)" style="text;html=1;align=center;verticalAlign=middle;whiteSpace=wrap;rounded=0;" vertex="1" parent="1">
          <mxGeometry x="380" y="343.74" width="30" height="25" as="geometry" />
        </mxCell>
        <mxCell id="K6GkEd_IJH7caCy-Qa0n-27" value="\(t_3\)" style="text;html=1;align=center;verticalAlign=middle;whiteSpace=wrap;rounded=0;" vertex="1" parent="1">
          <mxGeometry x="380" y="453.74" width="30" height="25" as="geometry" />
        </mxCell>
        <mxCell id="K6GkEd_IJH7caCy-Qa0n-28" value="\(p_3\)" style="text;html=1;align=center;verticalAlign=middle;whiteSpace=wrap;rounded=0;" vertex="1" parent="1">
          <mxGeometry x="390" y="398.74" width="30" height="25" as="geometry" />
        </mxCell>
        <mxCell id="K6GkEd_IJH7caCy-Qa0n-29" value="\(p_2\)" style="text;html=1;align=center;verticalAlign=middle;whiteSpace=wrap;rounded=0;" vertex="1" parent="1">
          <mxGeometry x="405" y="258.74" width="30" height="25" as="geometry" />
        </mxCell>
        <mxCell id="K6GkEd_IJH7caCy-Qa0n-30" value="\(p_1\)" style="text;html=1;align=center;verticalAlign=middle;whiteSpace=wrap;rounded=0;" vertex="1" parent="1">
          <mxGeometry x="290" y="288.74" width="20" height="25" as="geometry" />
        </mxCell>
        <mxCell id="K6GkEd_IJH7caCy-Qa0n-31" value="" style="ellipse;whiteSpace=wrap;html=1;aspect=fixed;fillColor=#000000;" vertex="1" parent="1">
          <mxGeometry x="325" y="296.24" width="10" height="10" as="geometry" />
        </mxCell>
        <mxCell id="K6GkEd_IJH7caCy-Qa0n-32" value="scatta \(t_1\)" style="text;html=1;align=center;verticalAlign=middle;whiteSpace=wrap;rounded=0;fontColor=#000000;" vertex="1" parent="1">
          <mxGeometry x="230" y="351.24" width="95" height="35" as="geometry" />
        </mxCell>
      </root>
    </mxGraphModel>
  </diagram>
</mxfile>
